<mxfile>
    <diagram id="-6jbr_5XOlCIHC9Z4vPj" name="Page-1">
        <mxGraphModel dx="884" dy="851" grid="1" gridSize="10" guides="1" tooltips="1" connect="1" arrows="1" fold="1" page="1" pageScale="1" pageWidth="850" pageHeight="1100" math="0" shadow="0">
            <root>
                <mxCell id="0"/>
                <mxCell id="1" parent="0"/>
                <mxCell id="2" value="&lt;b&gt;&lt;font style=&quot;font-size: 14px&quot; face=&quot;Courier New&quot;&gt;array(build-in)&lt;/font&gt;&lt;/b&gt;" style="rounded=0;whiteSpace=wrap;html=1;fillColor=#fff2cc;strokeColor=#d6b656;gradientDirection=north;shadow=1;" vertex="1" parent="1">
                    <mxGeometry x="30" y="120" width="180" height="40" as="geometry"/>
                </mxCell>
                <mxCell id="3" value="&lt;font face=&quot;Courier New&quot; style=&quot;font-size: 19px&quot;&gt;&lt;b&gt;序列式容器&lt;/b&gt;&lt;br&gt;&lt;font style=&quot;font-size: 19px&quot; color=&quot;#666666&quot;&gt;Sequence Containers&lt;/font&gt;&lt;br&gt;&lt;/font&gt;" style="text;html=1;strokeColor=none;fillColor=none;align=center;verticalAlign=middle;whiteSpace=wrap;rounded=0;" vertex="1" parent="1">
                    <mxGeometry y="50" width="240" height="40" as="geometry"/>
                </mxCell>
                <mxCell id="4" value="&lt;font face=&quot;Courier New&quot; style=&quot;font-size: 19px&quot;&gt;&lt;b&gt;关联式容器&lt;/b&gt;&lt;br&gt;&lt;font style=&quot;font-size: 19px&quot; color=&quot;#666666&quot;&gt;Associative Containers&lt;/font&gt;&lt;br&gt;&lt;/font&gt;" style="text;html=1;strokeColor=none;fillColor=none;align=center;verticalAlign=middle;whiteSpace=wrap;rounded=0;" vertex="1" parent="1">
                    <mxGeometry x="494" y="50" width="266" height="40" as="geometry"/>
                </mxCell>
                <mxCell id="17" style="edgeStyle=orthogonalEdgeStyle;rounded=0;orthogonalLoop=1;jettySize=auto;html=1;exitX=0;exitY=0.5;exitDx=0;exitDy=0;entryX=0;entryY=0.25;entryDx=0;entryDy=0;strokeColor=#CCCCCC;strokeWidth=3;" edge="1" parent="1" source="5" target="6">
                    <mxGeometry relative="1" as="geometry"/>
                </mxCell>
                <mxCell id="5" value="&lt;b&gt;&lt;font style=&quot;font-size: 14px&quot; face=&quot;Courier New&quot;&gt;vector&lt;/font&gt;&lt;/b&gt;" style="rounded=0;whiteSpace=wrap;html=1;fillColor=#fff2cc;strokeColor=#d6b656;gradientDirection=north;shadow=1;" vertex="1" parent="1">
                    <mxGeometry x="30" y="180" width="180" height="40" as="geometry"/>
                </mxCell>
                <mxCell id="18" style="edgeStyle=orthogonalEdgeStyle;rounded=0;orthogonalLoop=1;jettySize=auto;html=1;exitX=0;exitY=0.75;exitDx=0;exitDy=0;entryX=0;entryY=0.25;entryDx=0;entryDy=0;strokeColor=#CCCCCC;strokeWidth=3;" edge="1" parent="1" source="6" target="7">
                    <mxGeometry relative="1" as="geometry"/>
                </mxCell>
                <mxCell id="6" value="&lt;b&gt;&lt;font style=&quot;font-size: 14px&quot; face=&quot;Courier New&quot;&gt;heap&lt;/font&gt;&lt;/b&gt;" style="rounded=0;whiteSpace=wrap;html=1;fillColor=#fff2cc;strokeColor=#d6b656;gradientDirection=north;shadow=1;" vertex="1" parent="1">
                    <mxGeometry x="50" y="240" width="180" height="40" as="geometry"/>
                </mxCell>
                <mxCell id="7" value="&lt;b&gt;&lt;font style=&quot;font-size: 14px&quot; face=&quot;Courier New&quot;&gt;priority-queue&lt;/font&gt;&lt;/b&gt;" style="rounded=0;whiteSpace=wrap;html=1;fillColor=#fff2cc;strokeColor=#d6b656;gradientDirection=north;shadow=1;" vertex="1" parent="1">
                    <mxGeometry x="60" y="300" width="180" height="40" as="geometry"/>
                </mxCell>
                <mxCell id="8" value="&lt;b&gt;&lt;font style=&quot;font-size: 14px&quot; face=&quot;Courier New&quot;&gt;list&lt;/font&gt;&lt;/b&gt;" style="rounded=0;whiteSpace=wrap;html=1;fillColor=#fff2cc;strokeColor=#d6b656;gradientDirection=north;shadow=1;" vertex="1" parent="1">
                    <mxGeometry x="30" y="380" width="180" height="40" as="geometry"/>
                </mxCell>
                <mxCell id="9" value="&lt;b&gt;&lt;font style=&quot;font-size: 14px&quot; face=&quot;Courier New&quot;&gt;slist&lt;/font&gt;&lt;/b&gt;" style="rounded=0;whiteSpace=wrap;html=1;fillColor=#fff2cc;strokeColor=#d6b656;gradientDirection=north;shadow=1;" vertex="1" parent="1">
                    <mxGeometry x="30" y="450" width="180" height="40" as="geometry"/>
                </mxCell>
                <mxCell id="19" style="edgeStyle=orthogonalEdgeStyle;rounded=0;orthogonalLoop=1;jettySize=auto;html=1;exitX=0;exitY=0.75;exitDx=0;exitDy=0;entryX=0;entryY=0.25;entryDx=0;entryDy=0;strokeColor=#CCCCCC;strokeWidth=3;" edge="1" parent="1" source="10" target="11">
                    <mxGeometry relative="1" as="geometry"/>
                </mxCell>
                <mxCell id="20" style="edgeStyle=orthogonalEdgeStyle;rounded=0;orthogonalLoop=1;jettySize=auto;html=1;entryX=0;entryY=0.25;entryDx=0;entryDy=0;strokeColor=#CCCCCC;strokeWidth=3;" edge="1" parent="1" source="10" target="12">
                    <mxGeometry relative="1" as="geometry">
                        <Array as="points">
                            <mxPoint x="10" y="540"/>
                            <mxPoint x="10" y="660"/>
                        </Array>
                    </mxGeometry>
                </mxCell>
                <mxCell id="10" value="&lt;b&gt;&lt;font style=&quot;font-size: 14px&quot; face=&quot;Courier New&quot;&gt;deque&lt;/font&gt;&lt;/b&gt;" style="rounded=0;whiteSpace=wrap;html=1;fillColor=#fff2cc;strokeColor=#d6b656;gradientDirection=north;shadow=1;" vertex="1" parent="1">
                    <mxGeometry x="30" y="510" width="180" height="40" as="geometry"/>
                </mxCell>
                <mxCell id="11" value="&lt;b&gt;&lt;font style=&quot;font-size: 14px&quot; face=&quot;Courier New&quot;&gt;stack&lt;/font&gt;&lt;/b&gt;" style="rounded=0;whiteSpace=wrap;html=1;fillColor=#fff2cc;strokeColor=#d6b656;gradientDirection=north;shadow=1;gradientColor=#666666;" vertex="1" parent="1">
                    <mxGeometry x="50" y="580" width="180" height="40" as="geometry"/>
                </mxCell>
                <mxCell id="12" value="&lt;b&gt;&lt;font style=&quot;font-size: 14px&quot; face=&quot;Courier New&quot;&gt;queue&lt;/font&gt;&lt;/b&gt;" style="rounded=0;whiteSpace=wrap;html=1;fillColor=#fff2cc;strokeColor=#d6b656;gradientDirection=north;shadow=1;gradientColor=#666666;" vertex="1" parent="1">
                    <mxGeometry x="50" y="650" width="180" height="40" as="geometry"/>
                </mxCell>
                <mxCell id="13" value="&lt;b&gt;&lt;font color=&quot;#808080&quot; style=&quot;font-size: 16px&quot;&gt;C++ 内建&lt;/font&gt;&lt;/b&gt;" style="text;html=1;align=center;verticalAlign=middle;resizable=0;points=[];autosize=1;" vertex="1" parent="1">
                    <mxGeometry x="280" y="140" width="80" height="20" as="geometry"/>
                </mxCell>
                <mxCell id="21" value="" style="endArrow=none;html=1;strokeColor=#CCCCCC;strokeWidth=3;exitX=0.833;exitY=0.5;exitDx=0;exitDy=0;exitPerimeter=0;entryX=0.002;entryY=0.71;entryDx=0;entryDy=0;entryPerimeter=0;" edge="1" parent="1" source="6" target="23">
                    <mxGeometry width="50" height="50" relative="1" as="geometry">
                        <mxPoint x="250" y="250" as="sourcePoint"/>
                        <mxPoint x="250" y="230" as="targetPoint"/>
                    </mxGeometry>
                </mxCell>
                <mxCell id="23" value="&lt;font color=&quot;#808080&quot;&gt;&lt;span style=&quot;font-size: 16px&quot;&gt;&lt;b&gt;以算法形式&lt;br&gt;呈现（xxx_heap）&lt;br&gt;&lt;/b&gt;&lt;/span&gt;&lt;/font&gt;" style="text;html=1;align=center;verticalAlign=middle;resizable=0;points=[];autosize=1;" vertex="1" parent="1">
                    <mxGeometry x="250" y="220" width="150" height="40" as="geometry"/>
                </mxCell>
                <mxCell id="25" value="&lt;font color=&quot;#808080&quot;&gt;&lt;span style=&quot;font-size: 16px&quot;&gt;&lt;b&gt;非标准&lt;/b&gt;&lt;/span&gt;&lt;/font&gt;" style="text;html=1;align=center;verticalAlign=middle;resizable=0;points=[];autosize=1;" vertex="1" parent="1">
                    <mxGeometry x="290" y="460" width="60" height="20" as="geometry"/>
                </mxCell>
                <mxCell id="26" value="&lt;b&gt;&lt;font color=&quot;#808080&quot; style=&quot;font-size: 16px&quot;&gt;配接器&lt;/font&gt;&lt;/b&gt;" style="text;html=1;align=center;verticalAlign=middle;resizable=0;points=[];autosize=1;" vertex="1" parent="1">
                    <mxGeometry x="290" y="590" width="60" height="20" as="geometry"/>
                </mxCell>
                <mxCell id="27" value="&lt;b&gt;&lt;font color=&quot;#808080&quot; style=&quot;font-size: 16px&quot;&gt;配接器&lt;/font&gt;&lt;/b&gt;" style="text;html=1;align=center;verticalAlign=middle;resizable=0;points=[];autosize=1;" vertex="1" parent="1">
                    <mxGeometry x="290" y="660" width="60" height="20" as="geometry"/>
                </mxCell>
                <mxCell id="28" value="&lt;b&gt;&lt;font style=&quot;font-size: 14px&quot; face=&quot;Courier New&quot;&gt;RB-tree&lt;/font&gt;&lt;/b&gt;" style="rounded=0;whiteSpace=wrap;html=1;fillColor=#fff2cc;strokeColor=#d6b656;gradientDirection=north;shadow=1;" vertex="1" parent="1">
                    <mxGeometry x="524" y="120" width="180" height="40" as="geometry"/>
                </mxCell>
                <mxCell id="29" value="&lt;b&gt;&lt;font style=&quot;font-size: 14px&quot; face=&quot;Courier New&quot;&gt;set&lt;/font&gt;&lt;/b&gt;" style="rounded=0;whiteSpace=wrap;html=1;fillColor=#fff2cc;strokeColor=#d6b656;gradientDirection=north;shadow=1;" vertex="1" parent="1">
                    <mxGeometry x="544" y="180" width="180" height="40" as="geometry"/>
                </mxCell>
                <mxCell id="30" value="&lt;b&gt;&lt;font style=&quot;font-size: 14px&quot; face=&quot;Courier New&quot;&gt;map&lt;/font&gt;&lt;/b&gt;" style="rounded=0;whiteSpace=wrap;html=1;fillColor=#fff2cc;strokeColor=#d6b656;gradientDirection=north;shadow=1;" vertex="1" parent="1">
                    <mxGeometry x="544" y="240" width="180" height="40" as="geometry"/>
                </mxCell>
                <mxCell id="31" value="&lt;b&gt;&lt;font style=&quot;font-size: 14px&quot; face=&quot;Courier New&quot;&gt;multiset&lt;/font&gt;&lt;/b&gt;" style="rounded=0;whiteSpace=wrap;html=1;fillColor=#fff2cc;strokeColor=#d6b656;gradientDirection=north;shadow=1;" vertex="1" parent="1">
                    <mxGeometry x="544" y="300" width="180" height="40" as="geometry"/>
                </mxCell>
                <mxCell id="32" value="&lt;b&gt;&lt;font style=&quot;font-size: 14px&quot; face=&quot;Courier New&quot;&gt;multimap&lt;/font&gt;&lt;/b&gt;" style="rounded=0;whiteSpace=wrap;html=1;fillColor=#fff2cc;strokeColor=#d6b656;gradientDirection=north;shadow=1;" vertex="1" parent="1">
                    <mxGeometry x="544" y="360" width="180" height="40" as="geometry"/>
                </mxCell>
                <mxCell id="33" value="&lt;b&gt;&lt;font style=&quot;font-size: 14px&quot; face=&quot;Courier New&quot;&gt;hashtable&lt;/font&gt;&lt;/b&gt;" style="rounded=0;whiteSpace=wrap;html=1;fillColor=#fff2cc;strokeColor=#d6b656;gradientDirection=north;shadow=1;" vertex="1" parent="1">
                    <mxGeometry x="524" y="450" width="180" height="40" as="geometry"/>
                </mxCell>
                <mxCell id="35" value="&lt;b&gt;&lt;font style=&quot;font-size: 14px&quot; face=&quot;Courier New&quot;&gt;hash_set&lt;/font&gt;&lt;/b&gt;" style="rounded=0;whiteSpace=wrap;html=1;fillColor=#fff2cc;strokeColor=#d6b656;gradientDirection=north;shadow=1;" vertex="1" parent="1">
                    <mxGeometry x="544" y="520" width="180" height="40" as="geometry"/>
                </mxCell>
                <mxCell id="36" value="&lt;b&gt;&lt;font style=&quot;font-size: 14px&quot; face=&quot;Courier New&quot;&gt;hash_map&lt;/font&gt;&lt;/b&gt;" style="rounded=0;whiteSpace=wrap;html=1;fillColor=#fff2cc;strokeColor=#d6b656;gradientDirection=north;shadow=1;" vertex="1" parent="1">
                    <mxGeometry x="544" y="580" width="180" height="40" as="geometry"/>
                </mxCell>
                <mxCell id="37" value="&lt;b&gt;&lt;font style=&quot;font-size: 14px&quot; face=&quot;Courier New&quot;&gt;hash_multiset&lt;/font&gt;&lt;/b&gt;" style="rounded=0;whiteSpace=wrap;html=1;fillColor=#fff2cc;strokeColor=#d6b656;gradientDirection=north;shadow=1;" vertex="1" parent="1">
                    <mxGeometry x="544" y="640" width="180" height="40" as="geometry"/>
                </mxCell>
                <mxCell id="38" value="&lt;b&gt;&lt;font style=&quot;font-size: 14px&quot; face=&quot;Courier New&quot;&gt;hash_multimap&lt;/font&gt;&lt;/b&gt;" style="rounded=0;whiteSpace=wrap;html=1;fillColor=#fff2cc;strokeColor=#d6b656;gradientDirection=north;shadow=1;" vertex="1" parent="1">
                    <mxGeometry x="544" y="700" width="180" height="40" as="geometry"/>
                </mxCell>
                <mxCell id="39" value="" style="endArrow=none;html=1;strokeColor=#CCCCCC;strokeWidth=7;" edge="1" parent="1">
                    <mxGeometry width="50" height="50" relative="1" as="geometry">
                        <mxPoint x="425" y="790" as="sourcePoint"/>
                        <mxPoint x="425" y="30" as="targetPoint"/>
                    </mxGeometry>
                </mxCell>
                <mxCell id="41" value="&lt;b&gt;&lt;font color=&quot;#808080&quot; style=&quot;font-size: 16px&quot;&gt;非公开&lt;/font&gt;&lt;/b&gt;" style="text;html=1;align=center;verticalAlign=middle;resizable=0;points=[];autosize=1;" vertex="1" parent="1">
                    <mxGeometry x="770" y="130" width="60" height="20" as="geometry"/>
                </mxCell>
                <mxCell id="42" value="&lt;b&gt;&lt;font color=&quot;#808080&quot; style=&quot;font-size: 16px&quot;&gt;非标准&lt;/font&gt;&lt;/b&gt;" style="text;html=1;align=center;verticalAlign=middle;resizable=0;points=[];autosize=1;" vertex="1" parent="1">
                    <mxGeometry x="770" y="460" width="60" height="20" as="geometry"/>
                </mxCell>
                <mxCell id="43" value="&lt;b&gt;&lt;font color=&quot;#808080&quot; style=&quot;font-size: 16px&quot;&gt;非标准&lt;/font&gt;&lt;/b&gt;" style="text;html=1;align=center;verticalAlign=middle;resizable=0;points=[];autosize=1;" vertex="1" parent="1">
                    <mxGeometry x="770" y="530" width="60" height="20" as="geometry"/>
                </mxCell>
                <mxCell id="44" value="&lt;b&gt;&lt;font color=&quot;#808080&quot; style=&quot;font-size: 16px&quot;&gt;非标准&lt;/font&gt;&lt;/b&gt;" style="text;html=1;align=center;verticalAlign=middle;resizable=0;points=[];autosize=1;" vertex="1" parent="1">
                    <mxGeometry x="770" y="590" width="60" height="20" as="geometry"/>
                </mxCell>
                <mxCell id="45" value="&lt;b&gt;&lt;font color=&quot;#808080&quot; style=&quot;font-size: 16px&quot;&gt;非标准&lt;/font&gt;&lt;/b&gt;" style="text;html=1;align=center;verticalAlign=middle;resizable=0;points=[];autosize=1;" vertex="1" parent="1">
                    <mxGeometry x="770" y="650" width="60" height="20" as="geometry"/>
                </mxCell>
                <mxCell id="46" value="&lt;b&gt;&lt;font color=&quot;#808080&quot; style=&quot;font-size: 16px&quot;&gt;非标准&lt;/font&gt;&lt;/b&gt;" style="text;html=1;align=center;verticalAlign=middle;resizable=0;points=[];autosize=1;" vertex="1" parent="1">
                    <mxGeometry x="770" y="710" width="60" height="20" as="geometry"/>
                </mxCell>
                <mxCell id="47" value="&lt;font style=&quot;font-size: 20px&quot; face=&quot;Courier New&quot; color=&quot;#666666&quot;&gt;缩进的方式表示基层与衍生层的关系&lt;/font&gt;" style="text;html=1;align=center;verticalAlign=middle;resizable=0;points=[];autosize=1;" vertex="1" parent="1">
                    <mxGeometry x="255" y="820" width="340" height="20" as="geometry"/>
                </mxCell>
                <mxCell id="48" value="&lt;p style=&quot;line-height: 150%&quot;&gt;&lt;/p&gt;&lt;div style=&quot;text-align: left&quot;&gt;&lt;span&gt;&lt;font face=&quot;Courier New&quot;&gt;所谓衍生，并非派生（inheritance），而是内涵（containment）。&lt;/font&gt;&lt;/span&gt;&lt;/div&gt;&lt;div style=&quot;text-align: left&quot;&gt;&lt;span&gt;&lt;font face=&quot;Courier New&quot;&gt;例如:&lt;/font&gt;&lt;/span&gt;&lt;/div&gt;&lt;div style=&quot;text-align: left&quot;&gt;&lt;ul style=&quot;font-family: &amp;#34;courier new&amp;#34; ; font-weight: bold&quot;&gt;&lt;li&gt;&lt;b&gt;heap&lt;/b&gt;&lt;span style=&quot;font-weight: normal&quot;&gt; 内涵一个 &lt;/span&gt;&lt;span&gt;vector&lt;/span&gt;&lt;span style=&quot;font-weight: normal&quot;&gt;，&lt;/span&gt;&lt;/li&gt;&lt;li&gt;&lt;b&gt;priority-queue&lt;/b&gt;&lt;span style=&quot;font-weight: normal&quot;&gt; 内涵一个 &lt;/span&gt;&lt;b&gt;heap&lt;/b&gt;&lt;span style=&quot;font-weight: normal&quot;&gt;，&lt;/span&gt;&lt;/li&gt;&lt;li&gt;&lt;b&gt;stack&lt;/b&gt;&lt;span style=&quot;font-weight: normal&quot;&gt; 和 &lt;/span&gt;&lt;b&gt;queue&lt;/b&gt;&lt;span style=&quot;font-weight: normal&quot;&gt; 都内含一个 &lt;/span&gt;&lt;b&gt;deque&lt;/b&gt;&lt;/li&gt;&lt;/ul&gt;&lt;font face=&quot;courier new&quot;&gt;&lt;b&gt;&lt;br&gt;&lt;/b&gt;&lt;/font&gt;&lt;/div&gt;&lt;p&gt;&lt;/p&gt;" style="shape=note;whiteSpace=wrap;html=1;backgroundOutline=1;darkOpacity=0.05;shadow=1;strokeColor=#82b366;fillColor=#d5e8d4;" vertex="1" parent="1">
                    <mxGeometry x="295" y="860" width="260" height="210" as="geometry"/>
                </mxCell>
            </root>
        </mxGraphModel>
    </diagram>
</mxfile>